<svg width="400" height="220" viewBox="0 0 400 220" fill="none" xmlns="http://www.w3.org/2000/svg">
<rect x="0.5" y="0.5" width="399" height="219" rx="19.5" fill="white"/>
<path d="M128.827 41.18C127.867 41.18 126.973 41.024 126.145 40.712C125.329 40.388 124.615 39.938 124.003 39.362C123.403 38.774 122.935 38.084 122.599 37.292C122.263 36.5 122.095 35.636 122.095 34.7C122.095 33.764 122.263 32.9 122.599 32.108C122.935 31.316 123.409 30.632 124.021 30.056C124.633 29.468 125.347 29.018 126.163 28.706C126.979 28.382 127.873 28.22 128.845 28.22C129.877 28.22 130.819 28.4 131.671 28.76C132.523 29.108 133.243 29.63 133.831 30.326L132.319 31.748C131.863 31.256 131.353 30.89 130.789 30.65C130.225 30.398 129.613 30.272 128.953 30.272C128.293 30.272 127.687 30.38 127.135 30.596C126.595 30.812 126.121 31.118 125.713 31.514C125.317 31.91 125.005 32.378 124.777 32.918C124.561 33.458 124.453 34.052 124.453 34.7C124.453 35.348 124.561 35.942 124.777 36.482C125.005 37.022 125.317 37.49 125.713 37.886C126.121 38.282 126.595 38.588 127.135 38.804C127.687 39.02 128.293 39.128 128.953 39.128C129.613 39.128 130.225 39.008 130.789 38.768C131.353 38.516 131.863 38.138 132.319 37.634L133.831 39.074C133.243 39.758 132.523 40.28 131.671 40.64C130.819 41 129.871 41.18 128.827 41.18ZM135.751 41V31.388H140.449C141.613 31.388 142.525 31.604 143.185 32.036C143.857 32.468 144.193 33.08 144.193 33.872C144.193 34.652 143.881 35.264 143.257 35.708C142.633 36.14 141.805 36.356 140.773 36.356L141.043 35.798C142.207 35.798 143.071 36.014 143.635 36.446C144.211 36.866 144.499 37.484 144.499 38.3C144.499 39.152 144.181 39.818 143.545 40.298C142.909 40.766 141.943 41 140.647 41H135.751ZM137.893 39.362H140.467C141.079 39.362 141.541 39.266 141.853 39.074C142.165 38.87 142.321 38.564 142.321 38.156C142.321 37.724 142.177 37.406 141.889 37.202C141.601 36.998 141.151 36.896 140.539 36.896H137.893V39.362ZM137.893 35.402H140.251C140.827 35.402 141.259 35.3 141.547 35.096C141.847 34.88 141.997 34.58 141.997 34.196C141.997 33.8 141.847 33.506 141.547 33.314C141.259 33.122 140.827 33.026 140.251 33.026H137.893V35.402ZM152.998 41V37.724L153.322 38.102H150.442C149.122 38.102 148.084 37.826 147.328 37.274C146.584 36.71 146.212 35.9 146.212 34.844C146.212 33.716 146.608 32.858 147.4 32.27C148.204 31.682 149.272 31.388 150.604 31.388H155.014V41H152.998ZM146.086 41L148.678 37.328H150.982L148.498 41H146.086ZM152.998 37.004V32.684L153.322 33.278H150.676C149.98 33.278 149.44 33.41 149.056 33.674C148.684 33.926 148.498 34.34 148.498 34.916C148.498 35.996 149.2 36.536 150.604 36.536H153.322L152.998 37.004ZM160.959 41.162C161.847 41.162 162.633 41.036 163.317 40.784C164.013 40.532 164.559 40.184 164.955 39.74C165.351 39.284 165.549 38.762 165.549 38.174C165.549 37.442 165.243 36.866 164.631 36.446C164.019 36.014 163.179 35.798 162.111 35.798L162.039 36.284C162.663 36.284 163.215 36.182 163.695 35.978C164.187 35.774 164.571 35.492 164.847 35.132C165.135 34.76 165.279 34.346 165.279 33.89C165.279 33.338 165.081 32.858 164.685 32.45C164.289 32.042 163.749 31.73 163.065 31.514C162.381 31.298 161.601 31.208 160.725 31.244C160.149 31.256 159.567 31.34 158.979 31.496C158.403 31.64 157.809 31.85 157.197 32.126L157.773 33.782C158.301 33.554 158.817 33.38 159.321 33.26C159.837 33.14 160.335 33.08 160.815 33.08C161.271 33.08 161.661 33.128 161.985 33.224C162.309 33.308 162.555 33.44 162.723 33.62C162.903 33.788 162.993 33.986 162.993 34.214C162.993 34.442 162.921 34.64 162.777 34.808C162.633 34.976 162.423 35.102 162.147 35.186C161.883 35.27 161.559 35.312 161.175 35.312H159.501V36.824H161.355C161.967 36.824 162.435 36.926 162.759 37.13C163.095 37.322 163.263 37.61 163.263 37.994C163.263 38.258 163.161 38.492 162.957 38.696C162.765 38.9 162.489 39.056 162.129 39.164C161.769 39.26 161.337 39.308 160.833 39.308C160.245 39.308 159.657 39.236 159.069 39.092C158.481 38.948 157.953 38.744 157.485 38.48L156.855 40.154C157.431 40.478 158.073 40.73 158.781 40.91C159.501 41.078 160.227 41.162 160.959 41.162ZM167.866 41V31.388H170.116V35.294H174.958V31.388H177.208V41H174.958V37.202H170.116V41H167.866ZM189.926 41V31.388H192.176V41H189.926ZM184.904 34.556C186.14 34.556 187.076 34.832 187.712 35.384C188.36 35.936 188.684 36.716 188.684 37.724C188.684 38.768 188.324 39.584 187.604 40.172C186.896 40.748 185.888 41.03 184.58 41.018L180.224 41V31.388H182.474V34.538L184.904 34.556ZM184.382 39.362C185.042 39.374 185.546 39.236 185.894 38.948C186.242 38.66 186.416 38.24 186.416 37.688C186.416 37.136 186.242 36.74 185.894 36.5C185.558 36.248 185.054 36.116 184.382 36.104L182.474 36.086V39.344L184.382 39.362ZM195.2 41V31.388H197.45V37.724L202.76 31.388H204.812V41H202.562V34.664L197.27 41H195.2ZM199.862 30.254C198.902 30.254 198.164 30.032 197.648 29.588C197.132 29.132 196.868 28.472 196.856 27.608H198.35C198.362 28.04 198.494 28.382 198.746 28.634C199.01 28.886 199.376 29.012 199.844 29.012C200.3 29.012 200.66 28.886 200.924 28.634C201.2 28.382 201.344 28.04 201.356 27.608H202.886C202.874 28.472 202.604 29.132 202.076 29.588C201.56 30.032 200.822 30.254 199.862 30.254ZM217.188 41.126C216.18 41.126 215.28 40.916 214.488 40.496C213.708 40.064 213.096 39.476 212.652 38.732C212.208 37.988 211.986 37.142 211.986 36.194C211.986 35.234 212.208 34.388 212.652 33.656C213.096 32.912 213.708 32.33 214.488 31.91C215.28 31.49 216.18 31.28 217.188 31.28C218.124 31.28 218.946 31.472 219.654 31.856C220.374 32.228 220.92 32.78 221.292 33.512L219.564 34.52C219.276 34.064 218.922 33.728 218.502 33.512C218.094 33.296 217.65 33.188 217.17 33.188C216.618 33.188 216.12 33.308 215.676 33.548C215.232 33.788 214.884 34.136 214.632 34.592C214.38 35.036 214.254 35.57 214.254 36.194C214.254 36.818 214.38 37.358 214.632 37.814C214.884 38.258 215.232 38.6 215.676 38.84C216.12 39.08 216.618 39.2 217.17 39.2C217.65 39.2 218.094 39.092 218.502 38.876C218.922 38.66 219.276 38.324 219.564 37.868L221.292 38.876C220.92 39.596 220.374 40.154 219.654 40.55C218.946 40.934 218.124 41.126 217.188 41.126ZM223.273 41V31.388H232.489V41H230.257V32.774L230.779 33.296H225.001L225.523 32.774V41H223.273ZM235.525 41V31.388H237.775V37.724L243.085 31.388H245.137V41H242.887V34.664L237.595 41H235.525ZM252.537 41.126C251.529 41.126 250.629 40.916 249.837 40.496C249.057 40.064 248.445 39.476 248.001 38.732C247.557 37.988 247.335 37.142 247.335 36.194C247.335 35.234 247.557 34.388 248.001 33.656C248.445 32.912 249.057 32.33 249.837 31.91C250.629 31.49 251.529 31.28 252.537 31.28C253.473 31.28 254.295 31.472 255.003 31.856C255.723 32.228 256.269 32.78 256.641 33.512L254.913 34.52C254.625 34.064 254.271 33.728 253.851 33.512C253.443 33.296 252.999 33.188 252.519 33.188C251.967 33.188 251.469 33.308 251.025 33.548C250.581 33.788 250.233 34.136 249.981 34.592C249.729 35.036 249.603 35.57 249.603 36.194C249.603 36.818 249.729 37.358 249.981 37.814C250.233 38.258 250.581 38.6 251.025 38.84C251.469 39.08 251.967 39.2 252.519 39.2C252.999 39.2 253.443 39.092 253.851 38.876C254.271 38.66 254.625 38.324 254.913 37.868L256.641 38.876C256.269 39.596 255.723 40.154 255.003 40.55C254.295 40.934 253.473 41.126 252.537 41.126ZM262.766 41.126C261.782 41.126 260.906 40.916 260.138 40.496C259.37 40.064 258.764 39.476 258.32 38.732C257.876 37.988 257.654 37.142 257.654 36.194C257.654 35.234 257.876 34.388 258.32 33.656C258.764 32.912 259.37 32.33 260.138 31.91C260.906 31.49 261.782 31.28 262.766 31.28C263.762 31.28 264.644 31.49 265.412 31.91C266.192 32.33 266.798 32.906 267.23 33.638C267.674 34.37 267.896 35.222 267.896 36.194C267.896 37.142 267.674 37.988 267.23 38.732C266.798 39.476 266.192 40.064 265.412 40.496C264.644 40.916 263.762 41.126 262.766 41.126ZM262.766 39.2C263.318 39.2 263.81 39.08 264.242 38.84C264.674 38.6 265.01 38.252 265.25 37.796C265.502 37.34 265.628 36.806 265.628 36.194C265.628 35.57 265.502 35.036 265.25 34.592C265.01 34.136 264.674 33.788 264.242 33.548C263.81 33.308 263.324 33.188 262.784 33.188C262.232 33.188 261.74 33.308 261.308 33.548C260.888 33.788 260.552 34.136 260.3 34.592C260.048 35.036 259.922 35.57 259.922 36.194C259.922 36.806 260.048 37.34 260.3 37.796C260.552 38.252 260.888 38.6 261.308 38.84C261.74 39.08 262.226 39.2 262.766 39.2ZM277.012 41L273.538 36.392L275.374 35.258L279.658 41H277.012ZM270.118 41V31.388H272.368V41H270.118ZM271.702 37.148V35.276H274.96V37.148H271.702ZM275.59 36.464L273.484 36.212L277.012 31.388H279.424L275.59 36.464Z" fill="#141414"/>
<rect x="73" y="117" width="38" height="38" rx="19" fill="white"/>
<path d="M87.3094 142.16C86.3814 142.16 85.576 142.021 84.8934 141.744C84.2107 141.467 83.6827 141.077 83.3094 140.576C82.936 140.064 82.7494 139.467 82.7494 138.784C82.7494 138.101 82.9307 137.525 83.2934 137.056C83.656 136.587 84.1787 136.229 84.8614 135.984C85.544 135.739 86.36 135.616 87.3094 135.616C88.2587 135.616 89.0747 135.739 89.7574 135.984C90.4507 136.229 90.9787 136.592 91.3414 137.072C91.7147 137.541 91.9014 138.112 91.9014 138.784C91.9014 139.467 91.7094 140.064 91.3254 140.576C90.952 141.077 90.4187 141.467 89.7254 141.744C89.0427 142.021 88.2374 142.16 87.3094 142.16ZM87.3094 140.528C88.0774 140.528 88.6854 140.368 89.1334 140.048C89.5814 139.728 89.8054 139.285 89.8054 138.72C89.8054 138.165 89.5814 137.728 89.1334 137.408C88.6854 137.088 88.0774 136.928 87.3094 136.928C86.5414 136.928 85.9387 137.088 85.5014 137.408C85.064 137.728 84.8454 138.165 84.8454 138.72C84.8454 139.285 85.064 139.728 85.5014 140.048C85.9387 140.368 86.5414 140.528 87.3094 140.528ZM87.3094 136.704C86.4454 136.704 85.704 136.592 85.0854 136.368C84.4667 136.133 83.9867 135.797 83.6454 135.36C83.3147 134.912 83.1494 134.379 83.1494 133.76C83.1494 133.12 83.32 132.571 83.6614 132.112C84.0134 131.643 84.504 131.28 85.1334 131.024C85.7627 130.768 86.488 130.64 87.3094 130.64C88.1414 130.64 88.872 130.768 89.5014 131.024C90.1307 131.28 90.6214 131.643 90.9734 132.112C91.3254 132.571 91.5014 133.12 91.5014 133.76C91.5014 134.379 91.3307 134.912 90.9894 135.36C90.6587 135.797 90.1787 136.133 89.5494 136.368C88.92 136.592 88.1734 136.704 87.3094 136.704ZM87.3094 135.424C87.9707 135.424 88.4934 135.285 88.8774 135.008C89.2614 134.72 89.4534 134.336 89.4534 133.856C89.4534 133.355 89.256 132.965 88.8614 132.688C88.4667 132.411 87.9494 132.272 87.3094 132.272C86.6694 132.272 86.1574 132.411 85.7734 132.688C85.3894 132.965 85.1974 133.355 85.1974 133.856C85.1974 134.336 85.384 134.72 85.7574 135.008C86.1414 135.285 86.6587 135.424 87.3094 135.424ZM96.9629 142.16C96.1735 142.16 95.4002 142.048 94.6429 141.824C93.8962 141.589 93.2669 141.269 92.7549 140.864L93.6349 139.248C94.0402 139.579 94.5309 139.845 95.1069 140.048C95.6935 140.251 96.3015 140.352 96.9309 140.352C97.6669 140.352 98.2429 140.197 98.6589 139.888C99.0855 139.579 99.2989 139.163 99.2989 138.64C99.2989 138.288 99.2082 137.979 99.0269 137.712C98.8562 137.445 98.5469 137.243 98.0989 137.104C97.6615 136.965 97.0589 136.896 96.2909 136.896H93.5869L94.1629 130.8H100.739V132.544H94.9309L96.0189 131.552L95.5869 136.112L94.4989 135.136H96.7549C97.8642 135.136 98.7549 135.285 99.4269 135.584C100.11 135.872 100.606 136.277 100.915 136.8C101.235 137.312 101.395 137.899 101.395 138.56C101.395 139.211 101.235 139.808 100.915 140.352C100.595 140.896 100.104 141.333 99.4429 141.664C98.7922 141.995 97.9655 142.16 96.9629 142.16Z" fill="#3D3D3D"/>
<rect x="73" y="117" width="38" height="38" rx="19" stroke="#0032FF" stroke-width="2"/>
<path d="M92.0081 178.128C91.1334 178.128 90.3494 177.904 89.6561 177.456C88.9734 177.008 88.4294 176.357 88.0241 175.504C87.6294 174.651 87.4321 173.616 87.4321 172.4C87.4321 171.184 87.6294 170.149 88.0241 169.296C88.4294 168.443 88.9734 167.792 89.6561 167.344C90.3494 166.896 91.1334 166.672 92.0081 166.672C92.8721 166.672 93.6507 166.896 94.3441 167.344C95.0374 167.792 95.5814 168.443 95.9761 169.296C96.3707 170.149 96.5681 171.184 96.5681 172.4C96.5681 173.616 96.3707 174.651 95.9761 175.504C95.5814 176.357 95.0374 177.008 94.3441 177.456C93.6507 177.904 92.8721 178.128 92.0081 178.128ZM92.0081 176.704C92.5947 176.704 93.1067 176.544 93.5441 176.224C93.9921 175.904 94.3387 175.424 94.5841 174.784C94.8401 174.144 94.9681 173.349 94.9681 172.4C94.9681 171.451 94.8401 170.656 94.5841 170.016C94.3387 169.376 93.9921 168.896 93.5441 168.576C93.1067 168.256 92.5947 168.096 92.0081 168.096C91.4214 168.096 90.9041 168.256 90.4561 168.576C90.0081 168.896 89.6561 169.376 89.4001 170.016C89.1547 170.656 89.0321 171.451 89.0321 172.4C89.0321 173.349 89.1547 174.144 89.4001 174.784C89.6561 175.424 90.0081 175.904 90.4561 176.224C90.9041 176.544 91.4214 176.704 92.0081 176.704Z" fill="black"/>
<path fill-rule="evenodd" clip-rule="evenodd" d="M125.293 128.293C125.683 127.902 126.317 127.902 126.707 128.293L134.414 136L126.707 143.707C126.317 144.098 125.683 144.098 125.293 143.707C124.902 143.317 124.902 142.683 125.293 142.293L131.586 136L125.293 129.707C124.902 129.317 124.902 128.683 125.293 128.293Z" fill="#0032FF"/>
<rect x="145" y="117" width="38" height="38" rx="19" fill="white"/>
<path d="M158.793 142V131.6L159.705 132.544H156.425V130.8H160.873V142H158.793ZM166.615 142.16C165.825 142.16 165.052 142.048 164.295 141.824C163.548 141.589 162.919 141.269 162.407 140.864L163.303 139.248C163.708 139.579 164.199 139.845 164.775 140.048C165.351 140.251 165.953 140.352 166.583 140.352C167.329 140.352 167.911 140.203 168.327 139.904C168.743 139.595 168.951 139.179 168.951 138.656C168.951 138.144 168.759 137.739 168.375 137.44C167.991 137.141 167.372 136.992 166.519 136.992H165.495V135.568L168.695 131.76L168.967 132.544H162.951V130.8H170.583V132.192L167.383 136L166.295 135.36H166.919C168.295 135.36 169.324 135.669 170.007 136.288C170.7 136.896 171.047 137.68 171.047 138.64C171.047 139.269 170.887 139.851 170.567 140.384C170.247 140.917 169.756 141.349 169.095 141.68C168.444 142 167.617 142.16 166.615 142.16Z" fill="#3D3D3D"/>
<rect x="145" y="117" width="38" height="38" rx="19" stroke="#0032FF" stroke-width="2"/>
<path d="M163.695 178V167.44L164.383 168.192H161.167V166.8H165.279V178H163.695Z" fill="black"/>
<path fill-rule="evenodd" clip-rule="evenodd" d="M197.293 128.293C197.683 127.902 198.317 127.902 198.707 128.293L206.414 136L198.707 143.707C198.317 144.098 197.683 144.098 197.293 143.707C196.902 143.317 196.902 142.683 197.293 142.293L203.586 136L197.293 129.707C196.902 129.317 196.902 128.683 197.293 128.293Z" fill="#0032FF"/>
<rect x="217" y="117" width="38" height="38" rx="19" fill="white"/>
<path d="M230.138 142.16C229.349 142.16 228.575 142.048 227.818 141.824C227.071 141.589 226.442 141.269 225.93 140.864L226.826 139.248C227.231 139.579 227.722 139.845 228.298 140.048C228.874 140.251 229.477 140.352 230.106 140.352C230.853 140.352 231.434 140.203 231.85 139.904C232.266 139.595 232.474 139.179 232.474 138.656C232.474 138.144 232.282 137.739 231.898 137.44C231.514 137.141 230.895 136.992 230.042 136.992H229.018V135.568L232.218 131.76L232.49 132.544H226.474V130.8H234.106V132.192L230.906 136L229.818 135.36H230.442C231.818 135.36 232.847 135.669 233.53 136.288C234.223 136.896 234.57 137.68 234.57 138.64C234.57 139.269 234.41 139.851 234.09 140.384C233.77 140.917 233.279 141.349 232.618 141.68C231.967 142 231.141 142.16 230.138 142.16ZM235.771 139.456V138.016L241.291 130.8H243.515L238.075 138.016L237.035 137.696H245.915V139.456H235.771ZM241.915 142V139.456L241.979 137.696V135.44H243.931V142H241.915Z" fill="#3D3D3D"/>
<rect x="217" y="117" width="38" height="38" rx="19" stroke="#0032FF" stroke-width="2"/>
<path d="M231.998 178V176.912L236.558 172.512C236.964 172.128 237.262 171.792 237.454 171.504C237.657 171.205 237.79 170.933 237.854 170.688C237.929 170.432 237.966 170.187 237.966 169.952C237.966 169.376 237.764 168.923 237.358 168.592C236.953 168.261 236.361 168.096 235.582 168.096C234.985 168.096 234.446 168.197 233.966 168.4C233.486 168.592 233.07 168.896 232.718 169.312L231.63 168.368C232.057 167.824 232.628 167.408 233.342 167.12C234.068 166.821 234.862 166.672 235.726 166.672C236.505 166.672 237.182 166.8 237.758 167.056C238.334 167.301 238.777 167.659 239.086 168.128C239.406 168.597 239.566 169.152 239.566 169.792C239.566 170.155 239.518 170.512 239.422 170.864C239.326 171.216 239.145 171.589 238.878 171.984C238.612 172.379 238.228 172.821 237.726 173.312L233.662 177.232L233.278 176.608H240.046V178H231.998Z" fill="black"/>
<path fill-rule="evenodd" clip-rule="evenodd" d="M269.293 128.293C269.683 127.902 270.317 127.902 270.707 128.293L278.414 136L270.707 143.707C270.317 144.098 269.683 144.098 269.293 143.707C268.902 143.317 268.902 142.683 269.293 142.293L275.586 136L269.293 129.707C268.902 129.317 268.902 128.683 269.293 128.293Z" fill="#0032FF"/>
<rect x="289" y="117" width="38" height="38" rx="19" fill="white"/>
<path d="M307.449 142V131.6L308.361 132.544H305.081V130.8H309.529V142H307.449Z" fill="#3D3D3D"/>
<rect x="289" y="117" width="38" height="38" rx="19" stroke="#0032FF" stroke-width="2"/>
<path d="M307.614 178.128C306.825 178.128 306.057 178.005 305.31 177.76C304.574 177.515 303.971 177.184 303.502 176.768L304.238 175.504C304.611 175.856 305.097 176.144 305.694 176.368C306.291 176.592 306.931 176.704 307.614 176.704C308.446 176.704 309.091 176.528 309.55 176.176C310.019 175.813 310.254 175.328 310.254 174.72C310.254 174.133 310.03 173.664 309.582 173.312C309.145 172.949 308.446 172.768 307.486 172.768H306.59V171.648L309.918 167.552L310.142 168.192H304.014V166.8H311.406V167.888L308.094 171.968L307.262 171.472H307.79C309.145 171.472 310.158 171.776 310.83 172.384C311.513 172.992 311.854 173.765 311.854 174.704C311.854 175.333 311.699 175.909 311.39 176.432C311.081 176.955 310.611 177.371 309.982 177.68C309.363 177.979 308.574 178.128 307.614 178.128Z" fill="black"/>
<rect x="224" y="80" width="24" height="24" rx="12" fill="#D252E1"/>
<path d="M235.981 98.16C235.053 98.16 234.248 98.0213 233.565 97.744C232.883 97.4667 232.355 97.0773 231.981 96.576C231.608 96.064 231.421 95.4667 231.421 94.784C231.421 94.1013 231.603 93.5253 231.965 93.056C232.328 92.5867 232.851 92.2293 233.533 91.984C234.216 91.7387 235.032 91.616 235.981 91.616C236.931 91.616 237.747 91.7387 238.429 91.984C239.123 92.2293 239.651 92.592 240.013 93.072C240.387 93.5413 240.573 94.112 240.573 94.784C240.573 95.4667 240.381 96.064 239.997 96.576C239.624 97.0773 239.091 97.4667 238.397 97.744C237.715 98.0213 236.909 98.16 235.981 98.16ZM235.981 96.528C236.749 96.528 237.357 96.368 237.805 96.048C238.253 95.728 238.477 95.2853 238.477 94.72C238.477 94.1653 238.253 93.728 237.805 93.408C237.357 93.088 236.749 92.928 235.981 92.928C235.213 92.928 234.611 93.088 234.173 93.408C233.736 93.728 233.517 94.1653 233.517 94.72C233.517 95.2853 233.736 95.728 234.173 96.048C234.611 96.368 235.213 96.528 235.981 96.528ZM235.981 92.704C235.117 92.704 234.376 92.592 233.757 92.368C233.139 92.1333 232.659 91.7973 232.317 91.36C231.987 90.912 231.821 90.3787 231.821 89.76C231.821 89.12 231.992 88.5707 232.333 88.112C232.685 87.6427 233.176 87.28 233.805 87.024C234.435 86.768 235.16 86.64 235.981 86.64C236.813 86.64 237.544 86.768 238.173 87.024C238.803 87.28 239.293 87.6427 239.645 88.112C239.997 88.5707 240.173 89.12 240.173 89.76C240.173 90.3787 240.003 90.912 239.661 91.36C239.331 91.7973 238.851 92.1333 238.221 92.368C237.592 92.592 236.845 92.704 235.981 92.704ZM235.981 91.424C236.643 91.424 237.165 91.2853 237.549 91.008C237.933 90.72 238.125 90.336 238.125 89.856C238.125 89.3547 237.928 88.9653 237.533 88.688C237.139 88.4107 236.621 88.272 235.981 88.272C235.341 88.272 234.829 88.4107 234.445 88.688C234.061 88.9653 233.869 89.3547 233.869 89.856C233.869 90.336 234.056 90.72 234.429 91.008C234.813 91.2853 235.331 91.424 235.981 91.424Z" fill="white"/>
<rect x="0.5" y="0.5" width="399" height="219" rx="19.5" stroke="#141414"/>
</svg>
