<svg width="400" height="220" viewBox="0 0 400 220" fill="none" xmlns="http://www.w3.org/2000/svg">
<path d="M0 20C0 8.9543 8.95431 0 20 0H380C391.046 0 400 8.95431 400 20V200C400 211.046 391.046 220 380 220H20C8.95431 220 0 211.046 0 200V20Z" fill="url(#paint0_linear_527_6478)"/>
<path d="M185.999 41.18C184.727 41.18 183.575 40.904 182.543 40.352C181.523 39.788 180.719 39.014 180.131 38.03C179.555 37.046 179.267 35.936 179.267 34.7C179.267 33.464 179.561 32.354 180.149 31.37C180.737 30.386 181.541 29.618 182.561 29.066C183.593 28.502 184.745 28.22 186.017 28.22C187.049 28.22 187.991 28.4 188.843 28.76C189.695 29.12 190.415 29.642 191.003 30.326L189.491 31.748C188.579 30.764 187.457 30.272 186.125 30.272C185.261 30.272 184.487 30.464 183.803 30.848C183.119 31.22 182.585 31.742 182.201 32.414C181.817 33.086 181.625 33.848 181.625 34.7C181.625 35.552 181.817 36.314 182.201 36.986C182.585 37.658 183.119 38.186 183.803 38.57C184.487 38.942 185.261 39.128 186.125 39.128C187.457 39.128 188.579 38.63 189.491 37.634L191.003 39.074C190.415 39.758 189.689 40.28 188.825 40.64C187.973 41 187.031 41.18 185.999 41.18ZM200.274 33.296H196.908V41H194.658V33.296H191.274V31.388H200.274V33.296ZM210.485 36.248C210.485 36.404 210.473 36.626 210.449 36.914H202.907C203.039 37.622 203.381 38.186 203.933 38.606C204.497 39.014 205.193 39.218 206.021 39.218C207.077 39.218 207.947 38.87 208.631 38.174L209.837 39.56C209.405 40.076 208.859 40.466 208.199 40.73C207.539 40.994 206.795 41.126 205.967 41.126C204.911 41.126 203.981 40.916 203.177 40.496C202.373 40.076 201.749 39.494 201.305 38.75C200.873 37.994 200.657 37.142 200.657 36.194C200.657 35.258 200.867 34.418 201.287 33.674C201.719 32.918 202.313 32.33 203.069 31.91C203.825 31.49 204.677 31.28 205.625 31.28C206.561 31.28 207.395 31.49 208.127 31.91C208.871 32.318 209.447 32.9 209.855 33.656C210.275 34.4 210.485 35.264 210.485 36.248ZM205.625 33.08C204.905 33.08 204.293 33.296 203.789 33.728C203.297 34.148 202.997 34.712 202.889 35.42H208.343C208.247 34.724 207.953 34.16 207.461 33.728C206.969 33.296 206.357 33.08 205.625 33.08ZM216.942 37.148H215.196V41H212.946V31.388H215.196V35.276H216.996L219.84 31.388H222.252L218.76 36.014L222.486 41H219.84L216.942 37.148Z" fill="#141414"/>
<rect x="69" y="105" width="38" height="38" rx="19" fill="white"/>
<path d="M89.5291 118.8V130H87.4491V120.544H85.0811V118.8H89.5291Z" fill="black"/>
<rect x="69" y="105" width="38" height="38" rx="19" stroke="#0032FF" stroke-width="2"/>
<path d="M88.5081 166.128C87.6227 166.128 86.8334 165.904 86.1401 165.456C85.4574 164.997 84.9187 164.336 84.5241 163.472C84.1294 162.608 83.9321 161.584 83.9321 160.4C83.9321 159.216 84.1294 158.192 84.5241 157.328C84.9187 156.464 85.4574 155.808 86.1401 155.36C86.8334 154.901 87.6227 154.672 88.5081 154.672C89.3827 154.672 90.1614 154.901 90.8441 155.36C91.5374 155.808 92.0814 156.464 92.4761 157.328C92.8707 158.192 93.0681 159.216 93.0681 160.4C93.0681 161.584 92.8707 162.608 92.4761 163.472C92.0814 164.336 91.5374 164.997 90.8441 165.456C90.1614 165.904 89.3827 166.128 88.5081 166.128ZM88.5081 164.704C89.4041 164.704 90.1187 164.336 90.6521 163.6C91.1961 162.864 91.4681 161.797 91.4681 160.4C91.4681 159.003 91.1961 157.936 90.6521 157.2C90.1187 156.464 89.4041 156.096 88.5081 156.096C87.6014 156.096 86.8761 156.464 86.3321 157.2C85.7987 157.936 85.5321 159.003 85.5321 160.4C85.5321 161.797 85.7987 162.864 86.3321 163.6C86.8761 164.336 87.6014 164.704 88.5081 164.704Z" fill="black"/>
<rect x="125" y="105" width="38" height="38" rx="19" fill="white"/>
<path d="M148.16 128.24V130H139.904V128.608L144.352 124.384C144.853 123.904 145.189 123.488 145.36 123.136C145.541 122.773 145.632 122.416 145.632 122.064C145.632 121.541 145.456 121.141 145.104 120.864C144.752 120.587 144.234 120.448 143.552 120.448C142.41 120.448 141.536 120.837 140.928 121.616L139.472 120.496C139.909 119.909 140.496 119.456 141.232 119.136C141.978 118.805 142.81 118.64 143.728 118.64C144.944 118.64 145.914 118.928 146.64 119.504C147.365 120.08 147.728 120.864 147.728 121.856C147.728 122.464 147.6 123.035 147.344 123.568C147.088 124.101 146.597 124.709 145.872 125.392L142.88 128.24H148.16Z" fill="black"/>
<rect x="125" y="105" width="38" height="38" rx="19" stroke="#0032FF" stroke-width="2"/>
<path d="M145.279 154.8V166H143.695V156.192H141.167V154.8H145.279Z" fill="black"/>
<rect x="181" y="105" width="38" height="38" rx="19" fill="white"/>
<path d="M200.816 123.424C201.85 123.552 202.64 123.904 203.184 124.48C203.728 125.056 204 125.776 204 126.64C204 127.291 203.834 127.883 203.504 128.416C203.173 128.949 202.672 129.376 202 129.696C201.338 130.005 200.528 130.16 199.568 130.16C198.768 130.16 197.994 130.048 197.248 129.824C196.512 129.589 195.882 129.269 195.36 128.864L196.256 127.248C196.661 127.589 197.152 127.861 197.728 128.064C198.314 128.256 198.917 128.352 199.536 128.352C200.272 128.352 200.848 128.203 201.264 127.904C201.69 127.595 201.904 127.179 201.904 126.656C201.904 126.133 201.701 125.728 201.296 125.44C200.901 125.141 200.293 124.992 199.472 124.992H198.448V123.568L200.992 120.544H195.904V118.8H203.536V120.192L200.816 123.424Z" fill="black"/>
<rect x="181" y="105" width="38" height="38" rx="19" stroke="#0032FF" stroke-width="2"/>
<path d="M204.046 164.608V166H195.998V164.912L200.558 160.512C201.113 159.979 201.486 159.52 201.678 159.136C201.87 158.741 201.966 158.347 201.966 157.952C201.966 157.365 201.758 156.912 201.342 156.592C200.937 156.261 200.35 156.096 199.582 156.096C198.345 156.096 197.39 156.501 196.718 157.312L195.63 156.368C196.068 155.835 196.638 155.419 197.342 155.12C198.057 154.821 198.852 154.672 199.726 154.672C200.9 154.672 201.833 154.955 202.526 155.52C203.22 156.075 203.566 156.832 203.566 157.792C203.566 158.389 203.438 158.955 203.182 159.488C202.926 160.021 202.441 160.629 201.726 161.312L198.302 164.608H204.046Z" fill="black"/>
<rect x="237" y="105" width="38" height="38" rx="19" fill="white"/>
<path d="M261.258 127.456H259.274V130H257.258V127.456H251.114V126.016L256.634 118.8H258.858L253.658 125.696H257.322V123.44H259.274V125.696H261.258V127.456Z" fill="black"/>
<rect x="237" y="105" width="38" height="38" rx="19" stroke="#0032FF" stroke-width="2"/>
<path d="M256.478 159.504C257.577 159.611 258.414 159.952 258.99 160.528C259.566 161.093 259.854 161.819 259.854 162.704C259.854 163.344 259.694 163.925 259.374 164.448C259.054 164.96 258.574 165.371 257.934 165.68C257.305 165.979 256.531 166.128 255.614 166.128C254.814 166.128 254.046 166.011 253.31 165.776C252.574 165.531 251.971 165.195 251.502 164.768L252.238 163.504C252.622 163.867 253.113 164.16 253.71 164.384C254.307 164.597 254.942 164.704 255.614 164.704C256.446 164.704 257.091 164.528 257.55 164.176C258.019 163.824 258.254 163.339 258.254 162.72C258.254 162.101 258.025 161.621 257.566 161.28C257.107 160.939 256.414 160.768 255.486 160.768H254.59V159.648L257.406 156.192H252.014V154.8H259.406V155.888L256.478 159.504Z" fill="black"/>
<path d="M304.521 93.504C304.297 93.696 304.02 93.8453 303.689 93.952C303.358 94.048 303.017 94.096 302.665 94.096C301.812 94.096 301.15 93.8667 300.681 93.408C300.212 92.9493 299.977 92.2933 299.977 91.44V86.784H298.537V85.52H299.977V83.664H301.513V85.52H303.945V86.784H301.513V91.376C301.513 91.8347 301.625 92.1867 301.849 92.432C302.084 92.6773 302.414 92.8 302.841 92.8C303.31 92.8 303.71 92.6667 304.041 92.4L304.521 93.504ZM309.729 94.096C308.886 94.096 308.129 93.9093 307.457 93.536C306.785 93.1627 306.257 92.6507 305.873 92C305.499 91.3387 305.313 90.592 305.313 89.76C305.313 88.928 305.499 88.1867 305.873 87.536C306.257 86.8747 306.785 86.3627 307.457 86C308.129 85.6267 308.886 85.44 309.729 85.44C310.571 85.44 311.323 85.6267 311.985 86C312.657 86.3627 313.179 86.8747 313.553 87.536C313.937 88.1867 314.129 88.928 314.129 89.76C314.129 90.592 313.937 91.3387 313.553 92C313.179 92.6507 312.657 93.1627 311.985 93.536C311.323 93.9093 310.571 94.096 309.729 94.096ZM309.729 92.752C310.273 92.752 310.758 92.6293 311.185 92.384C311.622 92.128 311.963 91.776 312.209 91.328C312.454 90.8693 312.577 90.3467 312.577 89.76C312.577 89.1733 312.454 88.656 312.209 88.208C311.963 87.7493 311.622 87.3973 311.185 87.152C310.758 86.9067 310.273 86.784 309.729 86.784C309.185 86.784 308.694 86.9067 308.257 87.152C307.83 87.3973 307.489 87.7493 307.233 88.208C306.987 88.656 306.865 89.1733 306.865 89.76C306.865 90.3467 306.987 90.8693 307.233 91.328C307.489 91.776 307.83 92.128 308.257 92.384C308.694 92.6293 309.185 92.752 309.729 92.752ZM320.749 85.44C321.57 85.44 322.306 85.6213 322.957 85.984C323.608 86.3467 324.114 86.8533 324.477 87.504C324.85 88.1547 325.037 88.9067 325.037 89.76C325.037 90.6133 324.85 91.3707 324.477 92.032C324.114 92.6827 323.608 93.1893 322.957 93.552C322.306 93.9147 321.57 94.096 320.749 94.096C320.141 94.096 319.581 93.9787 319.069 93.744C318.568 93.5093 318.141 93.168 317.789 92.72V97.104H316.253V85.52H317.725V86.864C318.066 86.3947 318.498 86.0427 319.021 85.808C319.544 85.5627 320.12 85.44 320.749 85.44ZM320.621 92.752C321.165 92.752 321.65 92.6293 322.077 92.384C322.514 92.128 322.856 91.776 323.101 91.328C323.357 90.8693 323.485 90.3467 323.485 89.76C323.485 89.1733 323.357 88.656 323.101 88.208C322.856 87.7493 322.514 87.3973 322.077 87.152C321.65 86.9067 321.165 86.784 320.621 86.784C320.088 86.784 319.602 86.912 319.165 87.168C318.738 87.4133 318.397 87.76 318.141 88.208C317.896 88.656 317.773 89.1733 317.773 89.76C317.773 90.3467 317.896 90.8693 318.141 91.328C318.386 91.776 318.728 92.128 319.165 92.384C319.602 92.6293 320.088 92.752 320.621 92.752Z" fill="#3D3D3D"/>
<rect x="293" y="105" width="38" height="38" rx="19" fill="white"/>
<path d="M311.536 123.136C313.115 123.136 314.283 123.445 315.04 124.064C315.797 124.672 316.176 125.504 316.176 126.56C316.176 127.232 316.011 127.84 315.68 128.384C315.349 128.928 314.853 129.36 314.192 129.68C313.531 130 312.715 130.16 311.744 130.16C310.944 130.16 310.171 130.048 309.424 129.824C308.677 129.589 308.048 129.269 307.536 128.864L308.416 127.248C308.832 127.589 309.328 127.861 309.904 128.064C310.491 128.256 311.093 128.352 311.712 128.352C312.448 128.352 313.024 128.203 313.44 127.904C313.867 127.595 314.08 127.173 314.08 126.64C314.08 126.064 313.851 125.632 313.392 125.344C312.944 125.045 312.171 124.896 311.072 124.896H308.368L308.944 118.8H315.52V120.544H310.704L310.464 123.136H311.536Z" fill="black"/>
<rect x="293" y="105" width="38" height="38" rx="19" stroke="#0032FF" stroke-width="2"/>
<path d="M317.66 163.248H315.532V166H313.98V163.248H307.756V162.128L313.484 154.8H315.212L309.724 161.872H314.028V159.44H315.532V161.872H317.66V163.248Z" fill="black"/>
<path d="M20 1H380V-1H20V1ZM399 20V200H401V20H399ZM380 219H20V221H380V219ZM1 200V20H-1V200H1ZM20 219C9.50659 219 1 210.493 1 200H-1C-1 211.598 8.40203 221 20 221V219ZM399 200C399 210.493 390.493 219 380 219V221C391.598 221 401 211.598 401 200H399ZM380 1C390.493 1 399 9.50659 399 20H401C401 8.40202 391.598 -1 380 -1V1ZM20 -1C8.40202 -1 -1 8.40201 -1 20H1C1 9.50658 9.50659 1 20 1V-1Z" fill="#141414"/>
<defs>
<linearGradient id="paint0_linear_527_6478" x1="479" y1="-48" x2="-80.5" y2="263.5" gradientUnits="userSpaceOnUse">
<stop stop-color="#82CEFF"/>
<stop offset="1" stop-color="#FF6B9B"/>
</linearGradient>
</defs>
</svg>
